<?xml version="1.0" encoding="utf-8"?>
<!-- Generator: Adobe Illustrator 27.9.0, SVG Export Plug-In . SVG Version: 6.00 Build 0)  -->
<svg version="1.1" xmlns="http://www.w3.org/2000/svg" xmlns:xlink="http://www.w3.org/1999/xlink" x="0px" y="0px"
	 viewBox="0 0 512 512" style="enable-background:new 0 0 512 512;" xml:space="preserve">
<style type="text/css">
	.st0{fill:url(#SVGID_1_);}
	.st1{fill:#FFFFFF;}
	.st2{fill:#FF9055;}
</style>
<g id="outer_circle">
</g>
<g id="inner_circle">
</g>
<g id="outer_star">
</g>
<g id="inner_star">
	<g>
		<linearGradient id="SVGID_1_" gradientUnits="userSpaceOnUse" x1="28.6932" y1="271.572" x2="510" y2="271.572">
			<stop  offset="0.1391" style="stop-color:#CCE0F4"/>
			<stop  offset="0.1937" style="stop-color:#C3DCF2"/>
			<stop  offset="0.2845" style="stop-color:#A9D2EE"/>
			<stop  offset="0.4003" style="stop-color:#80C2E7"/>
			<stop  offset="0.5351" style="stop-color:#47ACDE"/>
			<stop  offset="0.6225" style="stop-color:#1E9CD7"/>
			<stop  offset="0.8652" style="stop-color:#0075BE"/>
			<stop  offset="0.9944" style="stop-color:#005B97"/>
		</linearGradient>
		<path class="st0" d="M495.93,135.74c-39.45-65.81-151.42-73.18-263.24-22.34l-17.34,38.63c100.21-54.67,206.58-52.49,242.11,6.78
			c37.09,61.87-17.07,162.51-120.96,224.78s-218.17,62.61-255.26,0.74c-14.39-24.01-15.04-53.86-4.37-85.04L31.7,326
			c-6.17,29.83-3.01,57.93,11.06,81.39c44.67,74.52,182.33,74.12,307.47-0.89S540.6,210.26,495.93,135.74z"/>
		<g>
			<path class="st1" d="M183.21,429.9c-47.69,0-83.72-16.3-101.45-45.88c-13.81-23.04-15.33-52.18-4.39-84.31l58.54-34.62
				l120.95,63.03l-66.12-119.76l25.09-55.88c46.44-25.3,96.03-39.23,139.66-39.23c47.68,0,83.71,16.29,101.44,45.88
				c17.82,29.73,15.11,69.37-7.63,111.63C426.5,313.11,386.33,353,336.18,383.06C285.79,413.26,231.47,429.9,183.21,429.9z"/>
			<path d="M355.48,113.86c47.45,0,83.29,16.19,100.91,45.58c36.68,61.19-17.4,161.26-120.54,223.09
				c-50.29,30.15-104.5,46.75-152.65,46.75c-47.46,0-83.3-16.19-100.92-45.59c-13.68-22.83-15.2-51.72-4.41-83.58l58.04-34.33
				l118.84,61.93l3.62,1.89l-1.97-3.58l-64.99-117.7l24.88-55.41C262.59,127.73,312.01,113.86,355.48,113.86 M355.48,112.63
				c-42.45,0-92,13.14-140.14,39.4l-25.3,56.35l65.28,118.24l-119.44-62.25l-59.03,34.91c-10.67,31.18-10.02,61.03,4.37,85.04
				c18.46,30.8,56.06,46.18,101.98,46.18c46.32,0,101.11-15.65,153.28-46.93c103.89-62.28,158.05-162.91,120.96-224.78
				C438.99,128.01,401.39,112.63,355.48,112.63L355.48,112.63z"/>
		</g>
		<path class="st2" d="M135.89,264.38l119.44,62.25l-65.28-118.24l25.3-56.35l17.34-38.63l5.92-13.18l-104.28,53.73l-23.01-11.99
			c0,0-1-0.52-2.8-1.46c-11.44-5.96-55.13-28.73-78.57-40.94c-9.04-4.71-28.73,3.63-28.73,3.63s16.27-6.76,20.45,0.81
			c16.71,30.27,58.5,105.95,58.5,105.95L4.9,341.85L31.7,326l45.17-26.71L135.89,264.38z M73.22,153.94
			c-2.17-3.93-3.68-6.58-3.68-6.58s3.29,1.83,7.98,4.28c12.16,6.34,34.84,18.16,40.78,21.25c0.93,0.49,1.45,0.76,1.45,0.76
			l11.94,6.22l61.06-34.05l-32.14,62.31l33.89,61.37l-62-32.31l-61.06,34.05l32.14-62.31C103.58,208.93,81.9,169.65,73.22,153.94z"
			/>
		<path class="st1" d="M132.5,237.19l62,32.31l-33.89-61.37l32.14-62.31l-61.06,34.05l-11.94-6.22c0,0-0.52-0.27-1.45-0.76
			c-5.94-3.09-28.61-14.91-40.78-21.25c-4.69-2.45-7.98-4.28-7.98-4.28s1.51,2.66,3.68,6.58c8.67,15.71,30.36,54.99,30.36,54.99
			l-32.14,62.31L132.5,237.19z"/>
	</g>
</g>
</svg>
